<svg width="49" height="48" viewBox="0 0 49 48" fill="none" xmlns="http://www.w3.org/2000/svg">
<rect x="1" y="1" width="47" height="46" stroke="#FF0000" stroke-width="2"/>
<g clip-path="url(#clip0_2483_8498)">
<path d="M30 18H35V20H33V33C33 33.2652 32.8946 33.5196 32.7071 33.7071C32.5196 33.8946 32.2652 34 32 34H18C17.7348 34 17.4804 33.8946 17.2929 33.7071C17.1054 33.5196 17 33.2652 17 33V20H15V18H20V15C20 14.7348 20.1054 14.4804 20.2929 14.2929C20.4804 14.1054 20.7348 14 21 14H29C29.2652 14 29.5196 14.1054 29.7071 14.2929C29.8946 14.4804 30 14.7348 30 15V18ZM31 20H19V32H31V20ZM22 23H24V29H22V23ZM26 23H28V29H26V23ZM22 16V18H28V16H22Z" fill="#FF0000"/>
</g>
<defs>
<clipPath id="clip0_2483_8498">
<rect width="24" height="24" fill="white" transform="translate(13 12)"/>
</clipPath>
</defs>
</svg>
