<svg width="36" height="36" viewBox="0 0 36 36" fill="none" xmlns="http://www.w3.org/2000/svg">
<path fill-rule="evenodd" clip-rule="evenodd" d="M11.46 19.05C11.46 17.4263 12.7763 16.11 14.4 16.11C16.0237 16.11 17.34 17.4263 17.34 19.05C17.34 20.6737 16.0237 21.99 14.4 21.99C12.7763 21.99 11.46 20.6737 11.46 19.05ZM14.4 17.19C13.3728 17.19 12.54 18.0228 12.54 19.05C12.54 20.0773 13.3728 20.91 14.4 20.91C15.4273 20.91 16.26 20.0773 16.26 19.05C16.26 18.0228 15.4273 17.19 14.4 17.19Z" fill="white"/>
<path fill-rule="evenodd" clip-rule="evenodd" d="M18.66 19.05C18.66 17.4263 19.9763 16.11 21.6 16.11C23.2237 16.11 24.54 17.4263 24.54 19.05C24.54 20.6737 23.2237 21.99 21.6 21.99C19.9763 21.99 18.66 20.6737 18.66 19.05ZM21.6 17.19C20.5727 17.19 19.74 18.0228 19.74 19.05C19.74 20.0773 20.5727 20.91 21.6 20.91C22.6272 20.91 23.46 20.0773 23.46 19.05C23.46 18.0228 22.6272 17.19 21.6 17.19Z" fill="white"/>
<path fill-rule="evenodd" clip-rule="evenodd" d="M14.4849 10.644C14.813 10.5971 15.0409 10.2931 14.994 9.96509C14.9471 9.63705 14.6431 9.40914 14.3151 9.45604C13.0714 9.63382 12.0133 9.97772 11.1103 10.5959C10.2047 11.216 9.49788 12.0827 8.91055 13.2382C7.95035 15.1273 6.70829 17.956 6.60668 22.7287C6.59523 23.2666 6.77568 23.8357 7.21786 24.2462C7.97995 24.9537 9.65368 26.1829 12.3126 26.4865C13.0445 26.5701 13.7375 26.2603 14.1993 25.7387C14.4252 25.4835 14.6925 25.175 14.9329 24.8801C17.0205 25.3433 19.2179 25.3256 21.2971 24.8271C21.5588 25.145 21.8586 25.4839 22.1065 25.758C22.5678 26.2679 23.253 26.5702 23.9762 26.4873C26.6676 26.1789 28.2208 24.9033 28.8955 24.1855C29.2665 23.7908 29.4037 23.2809 29.395 22.811C29.306 17.9887 28.0553 15.1384 27.0895 13.2382C26.5021 12.0827 25.7953 11.216 24.8897 10.5959C23.9868 9.97772 22.9286 9.63382 21.6849 9.45604C21.3569 9.40914 21.0529 9.63705 21.0061 9.96509C20.9592 10.2931 21.1871 10.5971 21.5151 10.644C22.6399 10.8048 23.506 11.1029 24.2118 11.5861C24.4239 11.7313 24.6254 11.896 24.8176 12.0831C22.7775 11.3713 20.3753 11.025 18 11.025C15.6248 11.025 13.2226 11.3713 11.1824 12.0831C11.3746 11.896 11.5761 11.7313 11.7883 11.5861C12.494 11.1029 13.3601 10.8048 14.4849 10.644ZM11.0685 21.9519C12.2156 22.7282 13.4958 23.2854 14.834 23.6235C14.8425 23.6255 14.8509 23.6276 14.8593 23.6299C16.9797 24.1609 19.2444 24.1424 21.3547 23.5743C21.3632 23.5718 21.3717 23.5695 21.3802 23.5674C22.6408 23.2252 23.8458 22.6867 24.9315 21.9519C25.206 21.7662 25.579 21.8381 25.7647 22.1125C25.9505 22.3869 25.8785 22.76 25.6041 22.9457C24.6582 23.5859 23.6317 24.0906 22.5588 24.4599C22.7071 24.6306 22.8578 24.7997 22.9965 24.953C23.2257 25.2065 23.5402 25.3294 23.8397 25.2951C26.1856 25.0263 27.4921 23.9264 28.0211 23.3637C28.1311 23.2466 28.1995 23.0653 28.1952 22.8331C28.1131 18.3826 27.0009 15.7369 26.1027 13.9461C23.9986 12.8134 21.0229 12.225 18 12.225C14.9771 12.225 12.0014 12.8134 9.89737 13.9461C9.00436 15.7265 7.90014 18.3515 7.80641 22.7542C7.8008 23.0176 7.88913 23.232 8.03431 23.3668C8.66477 23.9521 10.1108 25.0273 12.4487 25.2942C12.7527 25.3289 13.0714 25.2024 13.3007 24.9433C13.4147 24.8146 13.5368 24.675 13.6587 24.5327C12.507 24.158 11.4056 23.629 10.3959 22.9457C10.1215 22.76 10.0496 22.3869 10.2353 22.1125C10.421 21.8381 10.7941 21.7662 11.0685 21.9519Z" fill="white"/>
</svg>
